<svg id="Layer_1" data-name="Layer 1" xmlns="http://www.w3.org/2000/svg" viewBox="0 0 1920 1080"><defs><style>.cls-1{fill:#4f6bfe;}</style></defs><path class="cls-1" d="M1196.37,529.09a204.66,204.66,0,0,0-9.83-53.44,190.32,190.32,0,0,0-8.66-21.81A179,179,0,0,0,1153.21,415c-28.48-34-66.52-52.77-107.1-52.77a130,130,0,0,0-33.49,4.37,129.92,129.92,0,0,0-33.5-4.37C938.54,362.26,900.5,381,872,415a179.42,179.42,0,0,0-24.67,38.81h-38.2a18.59,18.59,0,1,0,0,21.81h96.53a203.82,203.82,0,0,0-9.81,53.44H757a18.58,18.58,0,1,0,0,21.82H895.87a204.08,204.08,0,0,0,9.81,53.42v0H809.15a18.59,18.59,0,1,0,0,21.81h38.2A179.42,179.42,0,0,0,872,665c28.48,34,66.52,52.77,107.1,52.77a130.36,130.36,0,0,0,33.5-4.37,130.45,130.45,0,0,0,33.49,4.37c40.58,0,78.62-18.75,107.1-52.77a179,179,0,0,0,24.67-38.81,189.19,189.19,0,0,0,8.66-21.83,204.51,204.51,0,0,0,9.83-53.42c.19-3.62.29-7.26.29-10.9S1196.56,532.72,1196.37,529.09Zm-43-75.25h-42.45A180.23,180.23,0,0,0,1086.23,415a156.61,156.61,0,0,0-34.4-30.81C1094.17,386.47,1131.25,413.61,1153.36,453.84Zm-281.47,0c22.09-40.23,59.17-67.37,101.53-69.62A155.94,155.94,0,0,0,939,415a179.08,179.08,0,0,0-24.68,38.81Zm0,172.32h42.45A179.32,179.32,0,0,0,939,665a156.25,156.25,0,0,0,34.38,30.8C931.06,693.51,894,666.38,871.89,626.16Zm179.94,69.61a155.89,155.89,0,0,0,34.4-30.8,180.23,180.23,0,0,0,24.68-38.81h42.45C1131.25,666.38,1094.17,693.51,1051.83,695.77Zm111.54-91.44H1055.93a18.59,18.59,0,1,0,0,21.83h30.42c-17.11,31.13-43.19,54.42-73.74,64.41-30.56-10-56.64-33.28-73.74-64.41a163.88,163.88,0,0,1-10-21.81,180.93,180.93,0,0,1-11.16-53.44c-.22-3.6-.32-7.25-.32-10.9s.1-7.3.32-10.92a180.93,180.93,0,0,1,11.16-53.44,163.88,163.88,0,0,1,10-21.81c17.1-31.13,43.18-54.44,73.74-64.41,30.55,10,56.63,33.28,73.74,64.41h-30.42a18.59,18.59,0,1,0,0,21.81h107.43a181.17,181.17,0,0,1,11.14,53.44H1003.73a18.59,18.59,0,1,0,0,21.82h170.78A181,181,0,0,1,1163.37,604.33Z"/></svg>